<svg width="32" height="32" viewBox="0 0 32 32" fill="none" xmlns="http://www.w3.org/2000/svg">
<path d="M20 4C13.3748 4 8 9.3724 8 15.9988C8 20.4168 11.582 23.9988 16 23.9988C20.418 23.9988 23.9988 20.4168 24 15.9988C24 13.056 21.6132 10.6664 18.6668 10.6664C15.7216 10.6664 13.3332 13.056 13.3332 15.9996C13.3332 17.4736 14.5272 18.6664 16 18.6664C17.4728 18.6664 18.6668 17.4736 18.6668 15.9996H16C16 14.5256 17.194 13.3328 18.6668 13.3328C20.1396 13.3328 21.3332 14.5256 21.3332 15.9996C21.3332 18.946 18.9452 21.3328 16 21.3328C13.0548 21.3328 10.6668 18.9464 10.6668 16C10.6668 11.5832 14.2488 8 18.6668 8C23.086 8 26.6652 11.582 26.6668 15.9988V15.9972V16V15.9988C26.6652 21.8896 21.8908 26.6652 16 26.6652C10.1092 26.6652 5.3332 21.8896 5.3332 15.9988V16V15.9972V15.9988C5.3332 7.8996 11.9012 1.3332 20 1.3332C21.0496 1.3332 22.0716 1.4476 23.0584 1.6576C20.9268 0.6068 18.5364 0 16 0C7.164 0 0 7.164 0 16C0 24.836 7.164 32 16 32C24.836 32 32 24.836 32 16C32 15.586 31.9688 15.1796 31.9376 14.7736C31.3232 8.7228 26.2136 4 20 4Z" fill="#F97316"/>
</svg>
