<svg xmlns="http://www.w3.org/2000/svg" width="500" height="500" x="0" y="0" viewBox="0 0 172 172" style="fill:#000"><g fill="none" fill-rule="nonzero" stroke="none" stroke-dashoffset="0" stroke-linecap="butt" stroke-linejoin="miter" stroke-miterlimit="10" stroke-width="1" font-family="none" font-size="none" font-weight="none" text-anchor="none" style="mix-blend-mode:normal"><path fill="none" d="M0,172v-172h172v172z"/><g fill="#000"><path d="M51.6,11.46667c-6.32387,0 -11.46667,5.1428 -11.46667,11.46667v40.13333h91.73333v-40.13333c0,-6.32387 -5.1428,-11.46667 -11.46667,-11.46667zM57.33333,34.4h17.2v17.2h-17.2zM97.46667,34.4h17.2v17.2h-17.2zM40.13333,74.53333c-6.33533,0 -11.46667,5.13133 -11.46667,11.46667v63.06667c0,6.33533 5.13133,11.46667 11.46667,11.46667h91.73333c6.33533,0 11.46667,-5.13133 11.46667,-11.46667v-63.06667c0,-6.33533 -5.13133,-11.46667 -11.46667,-11.46667z"/></g></g></svg>