<svg xmlns="http://www.w3.org/2000/svg" x="0px" y="0px"
width="500" height="500"
viewBox="0 0 172 172"
style=" fill:#000000;"><g fill="none" fill-rule="nonzero" stroke="none" stroke-width="1" stroke-linecap="butt" stroke-linejoin="miter" stroke-miterlimit="10" stroke-dasharray="" stroke-dashoffset="0" font-family="none" font-weight="none" font-size="none" text-anchor="none" style="mix-blend-mode: normal"><path d="M0,172v-172h172v172z" fill="none"></path><g fill="#000000"><path d="M51.6,11.46667c-6.32387,0 -11.46667,5.1428 -11.46667,11.46667v40.13333h91.73333v-40.13333c0,-6.32387 -5.1428,-11.46667 -11.46667,-11.46667zM57.33333,34.4h17.2v17.2h-17.2zM97.46667,34.4h17.2v17.2h-17.2zM40.13333,74.53333c-6.33533,0 -11.46667,5.13133 -11.46667,11.46667v63.06667c0,6.33533 5.13133,11.46667 11.46667,11.46667h91.73333c6.33533,0 11.46667,-5.13133 11.46667,-11.46667v-63.06667c0,-6.33533 -5.13133,-11.46667 -11.46667,-11.46667z"></path></g></g></svg>