<svg xmlns="http://www.w3.org/2000/svg" x="0px" y="0px"
width="500" height="500"
viewBox="0 0 226 226"
style=" fill:#000000;"><g fill="none" fill-rule="nonzero" stroke="none" stroke-width="1" stroke-linecap="butt" stroke-linejoin="miter" stroke-miterlimit="10" stroke-dasharray="" stroke-dashoffset="0" font-family="none" font-weight="none" font-size="none" text-anchor="none" style="mix-blend-mode: normal"><path d="M0,226v-226h226v226z" fill="none"></path><g><rect x="1" y="15" transform="scale(3.53125,3.53125)" width="62" height="40" rx="2" ry="2" fill="#c2cde7"></rect><rect x="-45" y="-48.95" transform="rotate(-180) scale(3.53125,3.53125)" width="26" height="6" rx="1" ry="1" fill="#faefde"></rect><rect x="-15" y="-48.95" transform="rotate(-180) scale(3.53125,3.53125)" width="8" height="6" rx="1" ry="1" fill="#faefde"></rect><rect x="-57" y="-48.95" transform="rotate(-180) scale(3.53125,3.53125)" width="8" height="6" rx="1" ry="1" fill="#faefde"></rect><path d="M208.34375,74.15625l-190.6875,0c-7.80102,0 -14.125,-6.32398 -14.125,-14.125v-3.53125c0,-1.95026 1.58099,-3.53125 3.53125,-3.53125l211.875,0c1.95026,0 3.53125,1.58099 3.53125,3.53125v3.53125c0,7.80102 -6.32398,14.125 -14.125,14.125z" fill="#ced8ed"></path><rect x="-13" y="-38.95" transform="rotate(-180) scale(3.53125,3.53125)" width="6" height="6" rx="1" ry="1" fill="#faefde"></rect><rect x="-23" y="-38.95" transform="rotate(-180) scale(3.53125,3.53125)" width="6" height="6" rx="1" ry="1" fill="#faefde"></rect><rect x="-33" y="-38.95" transform="rotate(-180) scale(3.53125,3.53125)" width="6" height="6" rx="1" ry="1" fill="#faefde"></rect><rect x="-43" y="-38.95" transform="rotate(-180) scale(3.53125,3.53125)" width="6" height="6" rx="1" ry="1" fill="#faefde"></rect><rect x="7" y="24.95" transform="scale(3.53125,3.53125)" width="6" height="4" rx="1" ry="1" fill="#faefde"></rect><path d="M197.75,95.34375h-14.125c-1.95026,0 -3.53125,1.58099 -3.53125,3.53125v17.65625h-10.59375c-1.95026,0 -3.53125,1.58099 -3.53125,3.53125v14.125c0,1.95026 1.58099,3.53125 3.53125,3.53125h28.25c1.95026,0 3.53125,-1.58099 3.53125,-3.53125v-35.3125c0,-1.95026 -1.58099,-3.53125 -3.53125,-3.53125z" fill="#faefde"></path><path d="M215.40625,49.4375h-95.34375v-10.59375c0,-7.80102 -6.32398,-14.125 -14.125,-14.125c-3.90051,0 -7.0625,-3.16199 -7.0625,-7.0625v-14.125c0,-1.95026 -1.58099,-3.53125 -3.53125,-3.53125c-1.95026,0 -3.53125,1.58099 -3.53125,3.53125v14.125c0,7.80102 6.32398,14.125 14.125,14.125c3.90051,0 7.0625,3.16199 7.0625,7.0625v10.59375h-102.40625c-5.85077,0 -10.59375,4.74298 -10.59375,10.59375v127.125c0,5.85077 4.74298,10.59375 10.59375,10.59375h204.8125c5.85077,0 10.59375,-4.74298 10.59375,-10.59375v-127.125c0,-5.85077 -4.74298,-10.59375 -10.59375,-10.59375zM218.9375,187.15625c0,1.95026 -1.58099,3.53125 -3.53125,3.53125h-204.8125c-1.95026,0 -3.53125,-1.58099 -3.53125,-3.53125v-127.125c0,-1.95026 1.58099,-3.53125 3.53125,-3.53125h204.8125c1.95026,0 3.53125,1.58099 3.53125,3.53125z" fill="#8d6c9f"></path><path d="M56.5,91.8125v7.0625c0,1.95026 1.58099,3.53125 3.53125,3.53125c1.95026,0 3.53125,-1.58099 3.53125,-3.53125v-7.0625c0,-1.95026 -1.58099,-3.53125 -3.53125,-3.53125c-1.95026,0 -3.53125,1.58099 -3.53125,3.53125z" fill="#fc6d74"></path><path d="M74.15625,91.8125v7.0625c0,1.95026 1.58099,3.53125 3.53125,3.53125c1.95026,0 3.53125,-1.58099 3.53125,-3.53125v-7.0625c0,-1.95026 -1.58099,-3.53125 -3.53125,-3.53125c-1.95026,0 -3.53125,1.58099 -3.53125,3.53125z" fill="#34c695"></path><path d="M98.875,98.875v-7.0625c0,-1.95026 -1.58099,-3.53125 -3.53125,-3.53125c-1.95026,0 -3.53125,1.58099 -3.53125,3.53125v7.0625c0,1.95026 1.58099,3.53125 3.53125,3.53125c1.95026,0 3.53125,-1.58099 3.53125,-3.53125z" fill="#5eb0dd"></path><path d="M116.53125,98.875v-7.0625c0,-1.95026 -1.58099,-3.53125 -3.53125,-3.53125c-1.95026,0 -3.53125,1.58099 -3.53125,3.53125v7.0625c0,1.95026 1.58099,3.53125 3.53125,3.53125c1.95026,0 3.53125,-1.58099 3.53125,-3.53125zM134.1875,98.875v-7.0625c0,-1.95026 -1.58099,-3.53125 -3.53125,-3.53125c-1.95026,0 -3.53125,1.58099 -3.53125,3.53125v7.0625c0,1.95026 1.58099,3.53125 3.53125,3.53125c1.95026,0 3.53125,-1.58099 3.53125,-3.53125zM151.84375,98.875v-7.0625c0,-1.95026 -1.58099,-3.53125 -3.53125,-3.53125c-1.95026,0 -3.53125,1.58099 -3.53125,3.53125v7.0625c0,1.95026 1.58099,3.53125 3.53125,3.53125c1.95026,0 3.53125,-1.58099 3.53125,-3.53125zM162.4375,91.8125v7.0625c0,1.95026 1.58099,3.53125 3.53125,3.53125c1.95026,0 3.53125,-1.58099 3.53125,-3.53125v-7.0625c0,-1.95026 -1.58099,-3.53125 -3.53125,-3.53125c-1.95026,0 -3.53125,1.58099 -3.53125,3.53125zM28.25,141.25h14.125c3.90051,0 7.0625,-3.16199 7.0625,-7.0625v-14.125c0,-3.90051 -3.16199,-7.0625 -7.0625,-7.0625h-14.125c-3.90051,0 -7.0625,3.16199 -7.0625,7.0625v14.125c0,3.90051 3.16199,7.0625 7.0625,7.0625zM28.25,120.0625h14.125v14.125h-14.125zM77.6875,141.25c3.90051,0 7.0625,-3.16199 7.0625,-7.0625v-14.125c0,-3.90051 -3.16199,-7.0625 -7.0625,-7.0625h-14.125c-3.90051,0 -7.0625,3.16199 -7.0625,7.0625v14.125c0,3.90051 3.16199,7.0625 7.0625,7.0625zM63.5625,120.0625h14.125v14.125h-14.125zM91.8125,134.1875c0,3.90051 3.16199,7.0625 7.0625,7.0625h14.125c3.90051,0 7.0625,-3.16199 7.0625,-7.0625v-14.125c0,-3.90051 -3.16199,-7.0625 -7.0625,-7.0625h-14.125c-3.90051,0 -7.0625,3.16199 -7.0625,7.0625zM98.875,120.0625h14.125v14.125h-14.125zM127.125,134.1875c0,3.90051 3.16199,7.0625 7.0625,7.0625h14.125c3.90051,0 7.0625,-3.16199 7.0625,-7.0625v-14.125c0,-3.90051 -3.16199,-7.0625 -7.0625,-7.0625h-14.125c-3.90051,0 -7.0625,3.16199 -7.0625,7.0625zM134.1875,120.0625h14.125v14.125h-14.125zM155.375,148.3125h-84.75c-3.90051,0 -7.0625,3.16199 -7.0625,7.0625v14.125c0,3.90051 3.16199,7.0625 7.0625,7.0625h84.75c3.90051,0 7.0625,-3.16199 7.0625,-7.0625v-14.125c0,-3.90051 -3.16199,-7.0625 -7.0625,-7.0625zM155.375,169.5h-84.75v-14.125h84.75zM28.25,105.9375h14.125c3.90051,0 7.0625,-3.16199 7.0625,-7.0625v-7.0625c0,-3.90051 -3.16199,-7.0625 -7.0625,-7.0625h-14.125c-3.90051,0 -7.0625,3.16199 -7.0625,7.0625v7.0625c0,3.90051 3.16199,7.0625 7.0625,7.0625zM28.25,91.8125h14.125v7.0625h-14.125zM197.75,91.8125h-14.125c-3.90051,0 -7.0625,3.16199 -7.0625,7.0625v14.125h-7.0625c-3.90051,0 -7.0625,3.16199 -7.0625,7.0625v14.125c0,3.90051 3.16199,7.0625 7.0625,7.0625h28.25c3.90051,0 7.0625,-3.16199 7.0625,-7.0625v-35.3125c0,-3.90051 -3.16199,-7.0625 -7.0625,-7.0625zM197.75,134.1875h-28.25v-14.125h10.59375c1.95026,0 3.53125,-1.58099 3.53125,-3.53125v-17.65625h14.125zM49.4375,148.3125h-21.1875c-3.90051,0 -7.0625,3.16199 -7.0625,7.0625v14.125c0,3.90051 3.16199,7.0625 7.0625,7.0625h21.1875c3.90051,0 7.0625,-3.16199 7.0625,-7.0625v-14.125c0,-3.90051 -3.16199,-7.0625 -7.0625,-7.0625zM49.4375,169.5h-21.1875v-14.125h21.1875zM197.75,148.3125h-21.1875c-3.90051,0 -7.0625,3.16199 -7.0625,7.0625v14.125c0,3.90051 3.16199,7.0625 7.0625,7.0625h21.1875c3.90051,0 7.0625,-3.16199 7.0625,-7.0625v-14.125c0,-3.90051 -3.16199,-7.0625 -7.0625,-7.0625zM197.75,169.5h-21.1875v-14.125h21.1875zM24.71875,77.6875h151.84375c1.95026,0 3.53125,-1.58099 3.53125,-3.53125c0,-1.95026 -1.58099,-3.53125 -3.53125,-3.53125h-151.84375c-1.95026,0 -3.53125,1.58099 -3.53125,3.53125c0,1.95026 1.58099,3.53125 3.53125,3.53125zM201.28125,70.625h-14.125c-1.95026,0 -3.53125,1.58099 -3.53125,3.53125c0,1.95026 1.58099,3.53125 3.53125,3.53125h14.125c1.95026,0 3.53125,-1.58099 3.53125,-3.53125c0,-1.95026 -1.58099,-3.53125 -3.53125,-3.53125z" fill="#8d6c9f"></path></g></g></svg>